solid JSCAD
facet normal -0.7071067811865485 0.7071067811865466 0
outer loop
vertex 0 0 0
vertex -0.9999999999999973 -1 0
vertex -0.9999999999999973 -1 40
endloop
endfacet
facet normal -0.7071067811865485 0.7071067811865466 0
outer loop
vertex 0 0 0
vertex -0.9999999999999973 -1 40
vertex 0 0 40
endloop
endfacet
facet normal -0.4472135954999579 -0.8944271909999159 0
outer loop
vertex -0.9999999999999973 -1 0
vertex 1.0000000000000027 -2 0
vertex 1.0000000000000027 -2 40
endloop
endfacet
facet normal -0.4472135954999579 -0.8944271909999159 0
outer loop
vertex -0.9999999999999973 -1 0
vertex 1.0000000000000027 -2 40
vertex -0.9999999999999973 -1 40
endloop
endfacet
facet normal -0.4472135954999579 0.8944271909999159 0
outer loop
vertex 1.0000000000000027 -2 0
vertex -0.9999999999999974 -3 0
vertex -0.9999999999999974 -3 40
endloop
endfacet
facet normal -0.4472135954999579 0.8944271909999159 0
outer loop
vertex 1.0000000000000027 -2 0
vertex -0.9999999999999974 -3 40
vertex 1.0000000000000027 -2 40
endloop
endfacet
facet normal -0.4472135954999579 -0.8944271909999159 0
outer loop
vertex -0.9999999999999974 -3 0
vertex 1.0000000000000024 -4 0
vertex 1.0000000000000024 -4 40
endloop
endfacet
facet normal -0.4472135954999579 -0.8944271909999159 0
outer loop
vertex -0.9999999999999974 -3 0
vertex 1.0000000000000024 -4 40
vertex -0.9999999999999974 -3 40
endloop
endfacet
facet normal -0.4472135954999579 0.8944271909999159 0
outer loop
vertex 1.0000000000000024 -4 0
vertex -0.9999999999999976 -5 0
vertex -0.9999999999999976 -5 40
endloop
endfacet
facet normal -0.4472135954999579 0.8944271909999159 0
outer loop
vertex 1.0000000000000024 -4 0
vertex -0.9999999999999976 -5 40
vertex 1.0000000000000024 -4 40
endloop
endfacet
facet normal -0.4472135954999579 -0.8944271909999159 0
outer loop
vertex -0.9999999999999976 -5 0
vertex 1.0000000000000024 -6 0
vertex 1.0000000000000024 -6 40
endloop
endfacet
facet normal -0.4472135954999579 -0.8944271909999159 0
outer loop
vertex -0.9999999999999976 -5 0
vertex 1.0000000000000024 -6 40
vertex -0.9999999999999976 -5 40
endloop
endfacet
facet normal -0.4472135954999579 0.8944271909999159 0
outer loop
vertex 1.0000000000000024 -6 0
vertex -0.9999999999999977 -7 0
vertex -0.9999999999999977 -7 40
endloop
endfacet
facet normal -0.4472135954999579 0.8944271909999159 0
outer loop
vertex 1.0000000000000024 -6 0
vertex -0.9999999999999977 -7 40
vertex 1.0000000000000024 -6 40
endloop
endfacet
facet normal -0.4472135954999579 -0.8944271909999159 0
outer loop
vertex -0.9999999999999977 -7 0
vertex 1.0000000000000022 -8 0
vertex 1.0000000000000022 -8 40
endloop
endfacet
facet normal -0.4472135954999579 -0.8944271909999159 0
outer loop
vertex -0.9999999999999977 -7 0
vertex 1.0000000000000022 -8 40
vertex -0.9999999999999977 -7 40
endloop
endfacet
facet normal -0.4472135954999579 0.8944271909999159 0
outer loop
vertex 1.0000000000000022 -8 0
vertex -0.9999999999999978 -9 0
vertex -0.9999999999999978 -9 40
endloop
endfacet
facet normal -0.4472135954999579 0.8944271909999159 0
outer loop
vertex 1.0000000000000022 -8 0
vertex -0.9999999999999978 -9 40
vertex 1.0000000000000022 -8 40
endloop
endfacet
facet normal -0.4472135954999579 -0.8944271909999159 0
outer loop
vertex -0.9999999999999978 -9 0
vertex 1.0000000000000022 -10 0
vertex 1.0000000000000022 -10 40
endloop
endfacet
facet normal -0.4472135954999579 -0.8944271909999159 0
outer loop
vertex -0.9999999999999978 -9 0
vertex 1.0000000000000022 -10 40
vertex -0.9999999999999978 -9 40
endloop
endfacet
facet normal -0.4472135954999579 0.8944271909999159 0
outer loop
vertex 1.0000000000000022 -10 0
vertex -0.9999999999999979 -11 0
vertex -0.9999999999999979 -11 40
endloop
endfacet
facet normal -0.4472135954999579 0.8944271909999159 0
outer loop
vertex 1.0000000000000022 -10 0
vertex -0.9999999999999979 -11 40
vertex 1.0000000000000022 -10 40
endloop
endfacet
facet normal -0.4472135954999579 -0.8944271909999159 0
outer loop
vertex -0.9999999999999979 -11 0
vertex 1.000000000000002 -12 0
vertex 1.000000000000002 -12 40
endloop
endfacet
facet normal -0.4472135954999579 -0.8944271909999159 0
outer loop
vertex -0.9999999999999979 -11 0
vertex 1.000000000000002 -12 40
vertex -0.9999999999999979 -11 40
endloop
endfacet
facet normal -0.4472135954999579 0.8944271909999159 0
outer loop
vertex 1.000000000000002 -12 0
vertex -0.999999999999998 -13 0
vertex -0.999999999999998 -13 40
endloop
endfacet
facet normal -0.4472135954999579 0.8944271909999159 0
outer loop
vertex 1.000000000000002 -12 0
vertex -0.999999999999998 -13 40
vertex 1.000000000000002 -12 40
endloop
endfacet
facet normal -0.4472135954999579 -0.8944271909999159 0
outer loop
vertex -0.999999999999998 -13 0
vertex 1.000000000000002 -14 0
vertex 1.000000000000002 -14 40
endloop
endfacet
facet normal -0.4472135954999579 -0.8944271909999159 0
outer loop
vertex -0.999999999999998 -13 0
vertex 1.000000000000002 -14 40
vertex -0.999999999999998 -13 40
endloop
endfacet
facet normal -0.4472135954999579 0.8944271909999159 0
outer loop
vertex 1.000000000000002 -14 0
vertex -0.9999999999999981 -15 0
vertex -0.9999999999999981 -15 40
endloop
endfacet
facet normal -0.4472135954999579 0.8944271909999159 0
outer loop
vertex 1.000000000000002 -14 0
vertex -0.9999999999999981 -15 40
vertex 1.000000000000002 -14 40
endloop
endfacet
facet normal -0.4472135954999579 -0.8944271909999159 0
outer loop
vertex -0.9999999999999981 -15 0
vertex 1.0000000000000018 -16 0
vertex 1.0000000000000018 -16 40
endloop
endfacet
facet normal -0.4472135954999579 -0.8944271909999159 0
outer loop
vertex -0.9999999999999981 -15 0
vertex 1.0000000000000018 -16 40
vertex -0.9999999999999981 -15 40
endloop
endfacet
facet normal -0.4472135954999579 0.8944271909999159 0
outer loop
vertex 1.0000000000000018 -16 0
vertex -0.9999999999999983 -17 0
vertex -0.9999999999999983 -17 40
endloop
endfacet
facet normal -0.4472135954999579 0.8944271909999159 0
outer loop
vertex 1.0000000000000018 -16 0
vertex -0.9999999999999983 -17 40
vertex 1.0000000000000018 -16 40
endloop
endfacet
facet normal -0.4472135954999579 -0.8944271909999159 0
outer loop
vertex -0.9999999999999983 -17 0
vertex 1.0000000000000016 -18 0
vertex 1.0000000000000016 -18 40
endloop
endfacet
facet normal -0.4472135954999579 -0.8944271909999159 0
outer loop
vertex -0.9999999999999983 -17 0
vertex 1.0000000000000016 -18 40
vertex -0.9999999999999983 -17 40
endloop
endfacet
facet normal -0.4472135954999579 0.8944271909999159 0
outer loop
vertex 1.0000000000000016 -18 0
vertex -0.9999999999999984 -19 0
vertex -0.9999999999999984 -19 40
endloop
endfacet
facet normal -0.4472135954999579 0.8944271909999159 0
outer loop
vertex 1.0000000000000016 -18 0
vertex -0.9999999999999984 -19 40
vertex 1.0000000000000016 -18 40
endloop
endfacet
facet normal -0.4472135954999579 -0.8944271909999159 0
outer loop
vertex -0.9999999999999984 -19 0
vertex 1.0000000000000016 -20 0
vertex 1.0000000000000016 -20 40
endloop
endfacet
facet normal -0.4472135954999579 -0.8944271909999159 0
outer loop
vertex -0.9999999999999984 -19 0
vertex 1.0000000000000016 -20 40
vertex -0.9999999999999984 -19 40
endloop
endfacet
facet normal -0.4472135954999579 0.8944271909999159 0
outer loop
vertex 1.0000000000000016 -20 0
vertex -0.9999999999999986 -21 0
vertex -0.9999999999999986 -21 40
endloop
endfacet
facet normal -0.4472135954999579 0.8944271909999159 0
outer loop
vertex 1.0000000000000016 -20 0
vertex -0.9999999999999986 -21 40
vertex 1.0000000000000016 -20 40
endloop
endfacet
facet normal -0.4472135954999579 -0.8944271909999159 0
outer loop
vertex -0.9999999999999986 -21 0
vertex 1.0000000000000013 -22 0
vertex 1.0000000000000013 -22 40
endloop
endfacet
facet normal -0.4472135954999579 -0.8944271909999159 0
outer loop
vertex -0.9999999999999986 -21 0
vertex 1.0000000000000013 -22 40
vertex -0.9999999999999986 -21 40
endloop
endfacet
facet normal -0.4472135954999579 0.8944271909999159 0
outer loop
vertex 1.0000000000000013 -22 0
vertex -0.9999999999999987 -23 0
vertex -0.9999999999999987 -23 40
endloop
endfacet
facet normal -0.4472135954999579 0.8944271909999159 0
outer loop
vertex 1.0000000000000013 -22 0
vertex -0.9999999999999987 -23 40
vertex 1.0000000000000013 -22 40
endloop
endfacet
facet normal -0.4472135954999579 -0.8944271909999159 0
outer loop
vertex -0.9999999999999987 -23 0
vertex 1.0000000000000013 -24 0
vertex 1.0000000000000013 -24 40
endloop
endfacet
facet normal -0.4472135954999579 -0.8944271909999159 0
outer loop
vertex -0.9999999999999987 -23 0
vertex 1.0000000000000013 -24 40
vertex -0.9999999999999987 -23 40
endloop
endfacet
facet normal -0.4472135954999579 0.8944271909999159 0
outer loop
vertex 1.0000000000000013 -24 0
vertex -0.9999999999999988 -25 0
vertex -0.9999999999999988 -25 40
endloop
endfacet
facet normal -0.4472135954999579 0.8944271909999159 0
outer loop
vertex 1.0000000000000013 -24 0
vertex -0.9999999999999988 -25 40
vertex 1.0000000000000013 -24 40
endloop
endfacet
facet normal -0.4472135954999579 -0.8944271909999159 0
outer loop
vertex -0.9999999999999988 -25 0
vertex 1.000000000000001 -26 0
vertex 1.000000000000001 -26 40
endloop
endfacet
facet normal -0.4472135954999579 -0.8944271909999159 0
outer loop
vertex -0.9999999999999988 -25 0
vertex 1.000000000000001 -26 40
vertex -0.9999999999999988 -25 40
endloop
endfacet
facet normal -0.4472135954999579 0.8944271909999159 0
outer loop
vertex 1.000000000000001 -26 0
vertex -0.9999999999999989 -27 0
vertex -0.9999999999999989 -27 40
endloop
endfacet
facet normal -0.4472135954999579 0.8944271909999159 0
outer loop
vertex 1.000000000000001 -26 0
vertex -0.9999999999999989 -27 40
vertex 1.000000000000001 -26 40
endloop
endfacet
facet normal -0.4472135954999579 -0.8944271909999159 0
outer loop
vertex -0.9999999999999989 -27 0
vertex 1.000000000000001 -28 0
vertex 1.000000000000001 -28 40
endloop
endfacet
facet normal -0.4472135954999579 -0.8944271909999159 0
outer loop
vertex -0.9999999999999989 -27 0
vertex 1.000000000000001 -28 40
vertex -0.9999999999999989 -27 40
endloop
endfacet
facet normal -0.4472135954999579 0.8944271909999159 0
outer loop
vertex 1.000000000000001 -28 0
vertex -0.999999999999999 -29 0
vertex -0.999999999999999 -29 40
endloop
endfacet
facet normal -0.4472135954999579 0.8944271909999159 0
outer loop
vertex 1.000000000000001 -28 0
vertex -0.999999999999999 -29 40
vertex 1.000000000000001 -28 40
endloop
endfacet
facet normal -0.4472135954999579 -0.8944271909999159 0
outer loop
vertex -0.999999999999999 -29 0
vertex 1.0000000000000009 -30 0
vertex 1.0000000000000009 -30 40
endloop
endfacet
facet normal -0.4472135954999579 -0.8944271909999159 0
outer loop
vertex -0.999999999999999 -29 0
vertex 1.0000000000000009 -30 40
vertex -0.999999999999999 -29 40
endloop
endfacet
facet normal -0.4472135954999579 0.8944271909999159 0
outer loop
vertex 1.0000000000000009 -30 0
vertex -0.9999999999999991 -31 0
vertex -0.9999999999999991 -31 40
endloop
endfacet
facet normal -0.4472135954999579 0.8944271909999159 0
outer loop
vertex 1.0000000000000009 -30 0
vertex -0.9999999999999991 -31 40
vertex 1.0000000000000009 -30 40
endloop
endfacet
facet normal -0.4472135954999579 -0.8944271909999159 0
outer loop
vertex -0.9999999999999991 -31 0
vertex 1.0000000000000009 -32 0
vertex 1.0000000000000009 -32 40
endloop
endfacet
facet normal -0.4472135954999579 -0.8944271909999159 0
outer loop
vertex -0.9999999999999991 -31 0
vertex 1.0000000000000009 -32 40
vertex -0.9999999999999991 -31 40
endloop
endfacet
facet normal -0.4472135954999579 0.8944271909999159 0
outer loop
vertex 1.0000000000000009 -32 0
vertex -0.9999999999999992 -33 0
vertex -0.9999999999999992 -33 40
endloop
endfacet
facet normal -0.4472135954999579 0.8944271909999159 0
outer loop
vertex 1.0000000000000009 -32 0
vertex -0.9999999999999992 -33 40
vertex 1.0000000000000009 -32 40
endloop
endfacet
facet normal -0.4472135954999579 -0.8944271909999159 0
outer loop
vertex -0.9999999999999992 -33 0
vertex 1.0000000000000007 -34 0
vertex 1.0000000000000007 -34 40
endloop
endfacet
facet normal -0.4472135954999579 -0.8944271909999159 0
outer loop
vertex -0.9999999999999992 -33 0
vertex 1.0000000000000007 -34 40
vertex -0.9999999999999992 -33 40
endloop
endfacet
facet normal -0.4472135954999579 0.8944271909999159 0
outer loop
vertex 1.0000000000000007 -34 0
vertex -0.9999999999999993 -35 0
vertex -0.9999999999999993 -35 40
endloop
endfacet
facet normal -0.4472135954999579 0.8944271909999159 0
outer loop
vertex 1.0000000000000007 -34 0
vertex -0.9999999999999993 -35 40
vertex 1.0000000000000007 -34 40
endloop
endfacet
facet normal -0.447213595499958 -0.8944271909999159 0
outer loop
vertex -0.9999999999999993 -35 0
vertex 1.0000000000000004 -36 0
vertex 1.0000000000000004 -36 40
endloop
endfacet
facet normal -0.447213595499958 -0.8944271909999159 0
outer loop
vertex -0.9999999999999993 -35 0
vertex 1.0000000000000004 -36 40
vertex -0.9999999999999993 -35 40
endloop
endfacet
facet normal -0.4472135954999579 0.8944271909999159 0
outer loop
vertex 1.0000000000000004 -36 0
vertex -0.9999999999999996 -37 0
vertex -0.9999999999999996 -37 40
endloop
endfacet
facet normal -0.4472135954999579 0.8944271909999159 0
outer loop
vertex 1.0000000000000004 -36 0
vertex -0.9999999999999996 -37 40
vertex 1.0000000000000004 -36 40
endloop
endfacet
facet normal -0.4472135954999579 -0.8944271909999159 0
outer loop
vertex -0.9999999999999996 -37 0
vertex 1.0000000000000004 -38 0
vertex 1.0000000000000004 -38 40
endloop
endfacet
facet normal -0.4472135954999579 -0.8944271909999159 0
outer loop
vertex -0.9999999999999996 -37 0
vertex 1.0000000000000004 -38 40
vertex -0.9999999999999996 -37 40
endloop
endfacet
facet normal -0.4472135954999579 0.8944271909999159 0
outer loop
vertex 1.0000000000000004 -38 0
vertex -0.9999999999999997 -39 0
vertex -0.9999999999999997 -39 40
endloop
endfacet
facet normal -0.4472135954999579 0.8944271909999159 0
outer loop
vertex 1.0000000000000004 -38 0
vertex -0.9999999999999997 -39 40
vertex 1.0000000000000004 -38 40
endloop
endfacet
facet normal -0.4472135954999579 -0.8944271909999159 0
outer loop
vertex -0.9999999999999997 -39 0
vertex 1.0000000000000002 -40 0
vertex 1.0000000000000002 -40 40
endloop
endfacet
facet normal -0.4472135954999579 -0.8944271909999159 0
outer loop
vertex -0.9999999999999997 -39 0
vertex 1.0000000000000002 -40 40
vertex -0.9999999999999997 -39 40
endloop
endfacet
facet normal -0.4472135954999579 0.8944271909999159 0
outer loop
vertex 1.0000000000000002 -40 0
vertex -0.9999999999999998 -41 0
vertex -0.9999999999999998 -41 40
endloop
endfacet
facet normal -0.4472135954999579 0.8944271909999159 0
outer loop
vertex 1.0000000000000002 -40 0
vertex -0.9999999999999998 -41 40
vertex 1.0000000000000002 -40 40
endloop
endfacet
facet normal -0.4472135954999579 -0.8944271909999159 0
outer loop
vertex -0.9999999999999998 -41 0
vertex 1.0000000000000002 -42 0
vertex 1.0000000000000002 -42 40
endloop
endfacet
facet normal -0.4472135954999579 -0.8944271909999159 0
outer loop
vertex -0.9999999999999998 -41 0
vertex 1.0000000000000002 -42 40
vertex -0.9999999999999998 -41 40
endloop
endfacet
facet normal -0.4472135954999579 0.8944271909999159 0
outer loop
vertex 1.0000000000000002 -42 0
vertex -0.9999999999999999 -43 0
vertex -0.9999999999999999 -43 40
endloop
endfacet
facet normal -0.4472135954999579 0.8944271909999159 0
outer loop
vertex 1.0000000000000002 -42 0
vertex -0.9999999999999999 -43 40
vertex 1.0000000000000002 -42 40
endloop
endfacet
facet normal -0.4472135954999579 -0.8944271909999159 0
outer loop
vertex -0.9999999999999999 -43 0
vertex 1 -44 0
vertex 1 -44 40
endloop
endfacet
facet normal -0.4472135954999579 -0.8944271909999159 0
outer loop
vertex -0.9999999999999999 -43 0
vertex 1 -44 40
vertex -0.9999999999999999 -43 40
endloop
endfacet
facet normal -0.4472135954999579 0.8944271909999159 0
outer loop
vertex 1 -44 0
vertex -1 -45 0
vertex -1 -45 40
endloop
endfacet
facet normal -0.4472135954999579 0.8944271909999159 0
outer loop
vertex 1 -44 0
vertex -1 -45 40
vertex 1 -44 40
endloop
endfacet
facet normal 0 -1 0
outer loop
vertex -1 -45 0
vertex 0 -45 0
vertex 0 -45 40
endloop
endfacet
facet normal 0 -1 0
outer loop
vertex -1 -45 0
vertex 0 -45 40
vertex -1 -45 40
endloop
endfacet
facet normal 0 -1 0
outer loop
vertex 0 -45 0
vertex 3 -45 0
vertex 3 -45 40
endloop
endfacet
facet normal 0 -1 0
outer loop
vertex 0 -45 0
vertex 3 -45 40
vertex 0 -45 40
endloop
endfacet
facet normal 1 0 0
outer loop
vertex 3 -45 0
vertex 3 3 0
vertex 3 3 40
endloop
endfacet
facet normal 1 0 0
outer loop
vertex 3 -45 0
vertex 3 3 40
vertex 3 -45 40
endloop
endfacet
facet normal 0 1 0
outer loop
vertex 3 3 0
vertex -28 3 0
vertex -28 3 40
endloop
endfacet
facet normal 0 1 0
outer loop
vertex 3 3 0
vertex -28 3 40
vertex 3 3 40
endloop
endfacet
facet normal -1 0 0
outer loop
vertex -28 3 0
vertex -28 -45 0
vertex -28 -45 40
endloop
endfacet
facet normal -1 0 0
outer loop
vertex -28 3 0
vertex -28 -45 40
vertex -28 3 40
endloop
endfacet
facet normal 0 -1 0
outer loop
vertex -28 -45 0
vertex -25 -45 0
vertex -25 -45 40
endloop
endfacet
facet normal 0 -1 0
outer loop
vertex -28 -45 0
vertex -25 -45 40
vertex -28 -45 40
endloop
endfacet
facet normal 0.7071067811865462 -0.7071067811865488 0
outer loop
vertex -25 -45 0
vertex -23.999999999999996 -44 0
vertex -23.999999999999996 -44 40
endloop
endfacet
facet normal 0.7071067811865462 -0.7071067811865488 0
outer loop
vertex -25 -45 0
vertex -23.999999999999996 -44 40
vertex -25 -45 40
endloop
endfacet
facet normal 0.4472135954999579 0.8944271909999159 0
outer loop
vertex -23.999999999999996 -44 0
vertex -25.999999999999996 -43 0
vertex -25.999999999999996 -43 40
endloop
endfacet
facet normal 0.4472135954999579 0.8944271909999159 0
outer loop
vertex -23.999999999999996 -44 0
vertex -25.999999999999996 -43 40
vertex -23.999999999999996 -44 40
endloop
endfacet
facet normal 0.4472135954999579 -0.8944271909999159 0
outer loop
vertex -25.999999999999996 -43 0
vertex -23.999999999999996 -42 0
vertex -23.999999999999996 -42 40
endloop
endfacet
facet normal 0.4472135954999579 -0.8944271909999159 0
outer loop
vertex -25.999999999999996 -43 0
vertex -23.999999999999996 -42 40
vertex -25.999999999999996 -43 40
endloop
endfacet
facet normal 0.4472135954999579 0.8944271909999159 0
outer loop
vertex -23.999999999999996 -42 0
vertex -25.999999999999996 -41 0
vertex -25.999999999999996 -41 40
endloop
endfacet
facet normal 0.4472135954999579 0.8944271909999159 0
outer loop
vertex -23.999999999999996 -42 0
vertex -25.999999999999996 -41 40
vertex -23.999999999999996 -42 40
endloop
endfacet
facet normal 0.4472135954999579 -0.8944271909999159 0
outer loop
vertex -25.999999999999996 -41 0
vertex -23.999999999999996 -40 0
vertex -23.999999999999996 -40 40
endloop
endfacet
facet normal 0.4472135954999579 -0.8944271909999159 0
outer loop
vertex -25.999999999999996 -41 0
vertex -23.999999999999996 -40 40
vertex -25.999999999999996 -41 40
endloop
endfacet
facet normal 0.4472135954999579 0.8944271909999159 0
outer loop
vertex -23.999999999999996 -40 0
vertex -25.999999999999996 -39 0
vertex -25.999999999999996 -39 40
endloop
endfacet
facet normal 0.4472135954999579 0.8944271909999159 0
outer loop
vertex -23.999999999999996 -40 0
vertex -25.999999999999996 -39 40
vertex -23.999999999999996 -40 40
endloop
endfacet
facet normal 0.4472135954999579 -0.8944271909999159 0
outer loop
vertex -25.999999999999996 -39 0
vertex -23.999999999999996 -38 0
vertex -23.999999999999996 -38 40
endloop
endfacet
facet normal 0.4472135954999579 -0.8944271909999159 0
outer loop
vertex -25.999999999999996 -39 0
vertex -23.999999999999996 -38 40
vertex -25.999999999999996 -39 40
endloop
endfacet
facet normal 0.4472135954999579 0.8944271909999159 0
outer loop
vertex -23.999999999999996 -38 0
vertex -25.999999999999996 -37 0
vertex -25.999999999999996 -37 40
endloop
endfacet
facet normal 0.4472135954999579 0.8944271909999159 0
outer loop
vertex -23.999999999999996 -38 0
vertex -25.999999999999996 -37 40
vertex -23.999999999999996 -38 40
endloop
endfacet
facet normal 0.4472135954999579 -0.8944271909999159 0
outer loop
vertex -25.999999999999996 -37 0
vertex -23.999999999999996 -36 0
vertex -23.999999999999996 -36 40
endloop
endfacet
facet normal 0.4472135954999579 -0.8944271909999159 0
outer loop
vertex -25.999999999999996 -37 0
vertex -23.999999999999996 -36 40
vertex -25.999999999999996 -37 40
endloop
endfacet
facet normal 0.4472135954999579 0.8944271909999159 0
outer loop
vertex -23.999999999999996 -36 0
vertex -25.999999999999996 -35 0
vertex -25.999999999999996 -35 40
endloop
endfacet
facet normal 0.4472135954999579 0.8944271909999159 0
outer loop
vertex -23.999999999999996 -36 0
vertex -25.999999999999996 -35 40
vertex -23.999999999999996 -36 40
endloop
endfacet
facet normal 0.4472135954999579 -0.8944271909999159 0
outer loop
vertex -25.999999999999996 -35 0
vertex -23.999999999999996 -34 0
vertex -23.999999999999996 -34 40
endloop
endfacet
facet normal 0.4472135954999579 -0.8944271909999159 0
outer loop
vertex -25.999999999999996 -35 0
vertex -23.999999999999996 -34 40
vertex -25.999999999999996 -35 40
endloop
endfacet
facet normal 0.4472135954999579 0.8944271909999159 0
outer loop
vertex -23.999999999999996 -34 0
vertex -25.999999999999996 -33 0
vertex -25.999999999999996 -33 40
endloop
endfacet
facet normal 0.4472135954999579 0.8944271909999159 0
outer loop
vertex -23.999999999999996 -34 0
vertex -25.999999999999996 -33 40
vertex -23.999999999999996 -34 40
endloop
endfacet
facet normal 0.4472135954999579 -0.8944271909999159 0
outer loop
vertex -25.999999999999996 -33 0
vertex -23.999999999999996 -32 0
vertex -23.999999999999996 -32 40
endloop
endfacet
facet normal 0.4472135954999579 -0.8944271909999159 0
outer loop
vertex -25.999999999999996 -33 0
vertex -23.999999999999996 -32 40
vertex -25.999999999999996 -33 40
endloop
endfacet
facet normal 0.4472135954999579 0.8944271909999159 0
outer loop
vertex -23.999999999999996 -32 0
vertex -25.999999999999996 -31 0
vertex -25.999999999999996 -31 40
endloop
endfacet
facet normal 0.4472135954999579 0.8944271909999159 0
outer loop
vertex -23.999999999999996 -32 0
vertex -25.999999999999996 -31 40
vertex -23.999999999999996 -32 40
endloop
endfacet
facet normal 0.44721359549995854 -0.8944271909999155 0
outer loop
vertex -25.999999999999996 -31 0
vertex -24 -30 0
vertex -24 -30 40
endloop
endfacet
facet normal 0.44721359549995854 -0.8944271909999155 0
outer loop
vertex -25.999999999999996 -31 0
vertex -24 -30 40
vertex -25.999999999999996 -31 40
endloop
endfacet
facet normal 0.4472135954999579 0.8944271909999159 0
outer loop
vertex -24 -30 0
vertex -26 -29 0
vertex -26 -29 40
endloop
endfacet
facet normal 0.4472135954999579 0.8944271909999159 0
outer loop
vertex -24 -30 0
vertex -26 -29 40
vertex -24 -30 40
endloop
endfacet
facet normal 0.4472135954999579 -0.8944271909999159 0
outer loop
vertex -26 -29 0
vertex -24 -28 0
vertex -24 -28 40
endloop
endfacet
facet normal 0.4472135954999579 -0.8944271909999159 0
outer loop
vertex -26 -29 0
vertex -24 -28 40
vertex -26 -29 40
endloop
endfacet
facet normal 0.4472135954999579 0.8944271909999159 0
outer loop
vertex -24 -28 0
vertex -26 -27 0
vertex -26 -27 40
endloop
endfacet
facet normal 0.4472135954999579 0.8944271909999159 0
outer loop
vertex -24 -28 0
vertex -26 -27 40
vertex -24 -28 40
endloop
endfacet
facet normal 0.4472135954999579 -0.8944271909999159 0
outer loop
vertex -26 -27 0
vertex -24 -26 0
vertex -24 -26 40
endloop
endfacet
facet normal 0.4472135954999579 -0.8944271909999159 0
outer loop
vertex -26 -27 0
vertex -24 -26 40
vertex -26 -27 40
endloop
endfacet
facet normal 0.4472135954999579 0.8944271909999159 0
outer loop
vertex -24 -26 0
vertex -26 -25 0
vertex -26 -25 40
endloop
endfacet
facet normal 0.4472135954999579 0.8944271909999159 0
outer loop
vertex -24 -26 0
vertex -26 -25 40
vertex -24 -26 40
endloop
endfacet
facet normal 0.4472135954999579 -0.8944271909999159 0
outer loop
vertex -26 -25 0
vertex -24 -24 0
vertex -24 -24 40
endloop
endfacet
facet normal 0.4472135954999579 -0.8944271909999159 0
outer loop
vertex -26 -25 0
vertex -24 -24 40
vertex -26 -25 40
endloop
endfacet
facet normal 0.4472135954999579 0.8944271909999159 0
outer loop
vertex -24 -24 0
vertex -26 -23 0
vertex -26 -23 40
endloop
endfacet
facet normal 0.4472135954999579 0.8944271909999159 0
outer loop
vertex -24 -24 0
vertex -26 -23 40
vertex -24 -24 40
endloop
endfacet
facet normal 0.4472135954999579 -0.8944271909999159 0
outer loop
vertex -26 -23 0
vertex -24 -22 0
vertex -24 -22 40
endloop
endfacet
facet normal 0.4472135954999579 -0.8944271909999159 0
outer loop
vertex -26 -23 0
vertex -24 -22 40
vertex -26 -23 40
endloop
endfacet
facet normal 0.4472135954999579 0.8944271909999159 0
outer loop
vertex -24 -22 0
vertex -26 -21 0
vertex -26 -21 40
endloop
endfacet
facet normal 0.4472135954999579 0.8944271909999159 0
outer loop
vertex -24 -22 0
vertex -26 -21 40
vertex -24 -22 40
endloop
endfacet
facet normal 0.4472135954999579 -0.8944271909999159 0
outer loop
vertex -26 -21 0
vertex -24 -20 0
vertex -24 -20 40
endloop
endfacet
facet normal 0.4472135954999579 -0.8944271909999159 0
outer loop
vertex -26 -21 0
vertex -24 -20 40
vertex -26 -21 40
endloop
endfacet
facet normal 0.4472135954999579 0.8944271909999159 0
outer loop
vertex -24 -20 0
vertex -26 -19 0
vertex -26 -19 40
endloop
endfacet
facet normal 0.4472135954999579 0.8944271909999159 0
outer loop
vertex -24 -20 0
vertex -26 -19 40
vertex -24 -20 40
endloop
endfacet
facet normal 0.4472135954999579 -0.8944271909999159 0
outer loop
vertex -26 -19 0
vertex -24 -18 0
vertex -24 -18 40
endloop
endfacet
facet normal 0.4472135954999579 -0.8944271909999159 0
outer loop
vertex -26 -19 0
vertex -24 -18 40
vertex -26 -19 40
endloop
endfacet
facet normal 0.4472135954999579 0.8944271909999159 0
outer loop
vertex -24 -18 0
vertex -26 -17 0
vertex -26 -17 40
endloop
endfacet
facet normal 0.4472135954999579 0.8944271909999159 0
outer loop
vertex -24 -18 0
vertex -26 -17 40
vertex -24 -18 40
endloop
endfacet
facet normal 0.4472135954999579 -0.8944271909999159 0
outer loop
vertex -26 -17 0
vertex -24 -16 0
vertex -24 -16 40
endloop
endfacet
facet normal 0.4472135954999579 -0.8944271909999159 0
outer loop
vertex -26 -17 0
vertex -24 -16 40
vertex -26 -17 40
endloop
endfacet
facet normal 0.4472135954999579 0.8944271909999159 0
outer loop
vertex -24 -16 0
vertex -26 -15 0
vertex -26 -15 40
endloop
endfacet
facet normal 0.4472135954999579 0.8944271909999159 0
outer loop
vertex -24 -16 0
vertex -26 -15 40
vertex -24 -16 40
endloop
endfacet
facet normal 0.4472135954999579 -0.8944271909999159 0
outer loop
vertex -26 -15 0
vertex -24 -14 0
vertex -24 -14 40
endloop
endfacet
facet normal 0.4472135954999579 -0.8944271909999159 0
outer loop
vertex -26 -15 0
vertex -24 -14 40
vertex -26 -15 40
endloop
endfacet
facet normal 0.4472135954999579 0.8944271909999159 0
outer loop
vertex -24 -14 0
vertex -26 -13 0
vertex -26 -13 40
endloop
endfacet
facet normal 0.4472135954999579 0.8944271909999159 0
outer loop
vertex -24 -14 0
vertex -26 -13 40
vertex -24 -14 40
endloop
endfacet
facet normal 0.4472135954999579 -0.8944271909999159 0
outer loop
vertex -26 -13 0
vertex -24 -12 0
vertex -24 -12 40
endloop
endfacet
facet normal 0.4472135954999579 -0.8944271909999159 0
outer loop
vertex -26 -13 0
vertex -24 -12 40
vertex -26 -13 40
endloop
endfacet
facet normal 0.4472135954999579 0.8944271909999159 0
outer loop
vertex -24 -12 0
vertex -26 -11 0
vertex -26 -11 40
endloop
endfacet
facet normal 0.4472135954999579 0.8944271909999159 0
outer loop
vertex -24 -12 0
vertex -26 -11 40
vertex -24 -12 40
endloop
endfacet
facet normal 0.4472135954999579 -0.8944271909999159 0
outer loop
vertex -26 -11 0
vertex -24 -10 0
vertex -24 -10 40
endloop
endfacet
facet normal 0.4472135954999579 -0.8944271909999159 0
outer loop
vertex -26 -11 0
vertex -24 -10 40
vertex -26 -11 40
endloop
endfacet
facet normal 0.4472135954999579 0.8944271909999159 0
outer loop
vertex -24 -10 0
vertex -26 -9 0
vertex -26 -9 40
endloop
endfacet
facet normal 0.4472135954999579 0.8944271909999159 0
outer loop
vertex -24 -10 0
vertex -26 -9 40
vertex -24 -10 40
endloop
endfacet
facet normal 0.4472135954999579 -0.8944271909999159 0
outer loop
vertex -26 -9 0
vertex -24 -8 0
vertex -24 -8 40
endloop
endfacet
facet normal 0.4472135954999579 -0.8944271909999159 0
outer loop
vertex -26 -9 0
vertex -24 -8 40
vertex -26 -9 40
endloop
endfacet
facet normal 0.4472135954999579 0.8944271909999159 0
outer loop
vertex -24 -8 0
vertex -26 -7 0
vertex -26 -7 40
endloop
endfacet
facet normal 0.4472135954999579 0.8944271909999159 0
outer loop
vertex -24 -8 0
vertex -26 -7 40
vertex -24 -8 40
endloop
endfacet
facet normal 0.4472135954999579 -0.8944271909999159 0
outer loop
vertex -26 -7 0
vertex -24 -6 0
vertex -24 -6 40
endloop
endfacet
facet normal 0.4472135954999579 -0.8944271909999159 0
outer loop
vertex -26 -7 0
vertex -24 -6 40
vertex -26 -7 40
endloop
endfacet
facet normal 0.4472135954999579 0.8944271909999159 0
outer loop
vertex -24 -6 0
vertex -26 -5 0
vertex -26 -5 40
endloop
endfacet
facet normal 0.4472135954999579 0.8944271909999159 0
outer loop
vertex -24 -6 0
vertex -26 -5 40
vertex -24 -6 40
endloop
endfacet
facet normal 0.4472135954999579 -0.8944271909999159 0
outer loop
vertex -26 -5 0
vertex -24 -4 0
vertex -24 -4 40
endloop
endfacet
facet normal 0.4472135954999579 -0.8944271909999159 0
outer loop
vertex -26 -5 0
vertex -24 -4 40
vertex -26 -5 40
endloop
endfacet
facet normal 0.4472135954999579 0.8944271909999159 0
outer loop
vertex -24 -4 0
vertex -26 -3 0
vertex -26 -3 40
endloop
endfacet
facet normal 0.4472135954999579 0.8944271909999159 0
outer loop
vertex -24 -4 0
vertex -26 -3 40
vertex -24 -4 40
endloop
endfacet
facet normal 0.4472135954999579 -0.8944271909999159 0
outer loop
vertex -26 -3 0
vertex -24 -2 0
vertex -24 -2 40
endloop
endfacet
facet normal 0.4472135954999579 -0.8944271909999159 0
outer loop
vertex -26 -3 0
vertex -24 -2 40
vertex -26 -3 40
endloop
endfacet
facet normal 0.4472135954999579 0.8944271909999159 0
outer loop
vertex -24 -2 0
vertex -26 -1 0
vertex -26 -1 40
endloop
endfacet
facet normal 0.4472135954999579 0.8944271909999159 0
outer loop
vertex -24 -2 0
vertex -26 -1 40
vertex -24 -2 40
endloop
endfacet
facet normal 0.4472135954999579 -0.8944271909999159 0
outer loop
vertex -26 -1 0
vertex -24 6.123233995736766e-17 0
vertex -24 6.123233995736766e-17 40
endloop
endfacet
facet normal 0.4472135954999579 -0.8944271909999159 0
outer loop
vertex -26 -1 0
vertex -24 6.123233995736766e-17 40
vertex -26 -1 40
endloop
endfacet
facet normal -2.5513474982236528e-18 -1 0
outer loop
vertex -24 6.123233995736766e-17 0
vertex 0 0 0
vertex 0 0 40
endloop
endfacet
facet normal -2.5513474982236528e-18 -1 0
outer loop
vertex -24 6.123233995736766e-17 0
vertex 0 0 40
vertex -24 6.123233995736766e-17 40
endloop
endfacet
facet normal 0 0 1
outer loop
vertex -24 -38 40
vertex -28 -36 40
vertex -28 -40 40
endloop
endfacet
facet normal 0 0 1
outer loop
vertex -28 -34 40
vertex -23.999999999999996 -32 40
vertex -28 -30 40
endloop
endfacet
facet normal 0 0 1
outer loop
vertex -0.9999999999999964 -19 40
vertex 0.33333333333333925 -19.666666666666668 40
vertex 2.9999999999999996 -17.000000000000004 40
endloop
endfacet
facet normal 0 0 1
outer loop
vertex -0.9999999999999938 -39 40
vertex 2.9999999999999987 -41 40
vertex 2.999999999999999 -37 40
endloop
endfacet
facet normal 0 0 1
outer loop
vertex 2.9999999999999987 -43 40
vertex -1.0000000000000049 -45 40
vertex 2.9999999999999987 -45 40
endloop
endfacet
facet normal 0 0 1
outer loop
vertex -0.9999999999999933 -25 40
vertex 2.999999999999999 -27 40
vertex 2.9999999999999996 -23.000000000000007 40
endloop
endfacet
facet normal 0 0 1
outer loop
vertex -24 -40 40
vertex -25.99999999999999 -38.99999999999999 40
vertex -28 -40 40
endloop
endfacet
facet normal 0 0 1
outer loop
vertex -24 -40 40
vertex -28 -40 40
vertex -28 -42 40
endloop
endfacet
facet normal 0 0 1
outer loop
vertex -23.999999999999986 -41.99999999999999 40
vertex -25.99999999999999 -40.99999999999999 40
vertex -28 -42 40
endloop
endfacet
facet normal 0 0 1
outer loop
vertex -23.999999999999986 -41.99999999999999 40
vertex -28 -42 40
vertex -28 -44 40
endloop
endfacet
facet normal 0 0 1
outer loop
vertex -25 -45 40
vertex -24 -44 40
vertex -26.000000000000007 -43 40
endloop
endfacet
facet normal 0 0 1
outer loop
vertex -25 -45 40
vertex -26.000000000000007 -43 40
vertex -28 -44 40
endloop
endfacet
facet normal 0 0 1
outer loop
vertex -25 -45 40
vertex -28 -44 40
vertex -28 -45 40
endloop
endfacet
facet normal 0 0 1
outer loop
vertex -25.999999999999996 -33 40
vertex -28 -34 40
vertex -28 -36 40
endloop
endfacet
facet normal 0 0 1
outer loop
vertex -25.999999999999996 -33 40
vertex -28 -36 40
vertex -24 -34 40
endloop
endfacet
facet normal 0 0 1
outer loop
vertex -23.999999999999993 -35.99999999999999 40
vertex -25.99999999999999 -34.99999999999999 40
vertex -28 -36 40
endloop
endfacet
facet normal 0 0 1
outer loop
vertex -23.999999999999993 -35.99999999999999 40
vertex -28 -36 40
vertex -26.000000000000007 -37 40
endloop
endfacet
facet normal 0 0 1
outer loop
vertex -24 -18 40
vertex -28 -16.000000000000004 40
vertex -28 -20.000000000000004 40
endloop
endfacet
facet normal 0 0 1
outer loop
vertex -0.9999999999999898 -37 40
vertex 0.9999999999999991 -38 40
vertex 2.999999999999999 -37 40
endloop
endfacet
facet normal 0 0 1
outer loop
vertex -0.9999999999999898 -37 40
vertex 2.999999999999999 -37 40
vertex 2.999999999999999 -35.00000000000001 40
endloop
endfacet
facet normal 0 0 1
outer loop
vertex -0.9999999999999942 -35 40
vertex 1.0000000000000089 -36 40
vertex 2.999999999999999 -35.00000000000001 40
endloop
endfacet
facet normal 0 0 1
outer loop
vertex -0.9999999999999942 -35 40
vertex 2.999999999999999 -35.00000000000001 40
vertex 2.999999999999999 -33 40
endloop
endfacet
facet normal 0 0 1
outer loop
vertex -1.0000000000000018 -33 40
vertex 1.0000000000000024 -34 40
vertex 2.999999999999999 -33 40
endloop
endfacet
facet normal 0 0 1
outer loop
vertex -1.0000000000000018 -33 40
vertex 2.999999999999999 -33 40
vertex 2.999999999999999 -30.999999999999996 40
endloop
endfacet
facet normal 0 0 1
outer loop
vertex 0.999999999999996 -44 40
vertex 2.9999999999999987 -43 40
vertex 2.9999999999999982 -41 40
endloop
endfacet
facet normal 0 0 1
outer loop
vertex 0.999999999999996 -44 40
vertex 2.9999999999999982 -41 40
vertex -1.0000000000000036 -43 40
endloop
endfacet
facet normal 0 0 1
outer loop
vertex -0.9999999999999878 -41.00000000000001 40
vertex 0.9999999999999956 -42 40
vertex 2.9999999999999982 -41 40
endloop
endfacet
facet normal 0 0 1
outer loop
vertex -0.9999999999999878 -41.00000000000001 40
vertex 2.9999999999999982 -41 40
vertex 1.000000000000007 -40 40
endloop
endfacet
facet normal 0 0 1
outer loop
vertex -0.9999999999999976 -23 40
vertex 1.000000000000008 -24 40
vertex 2.9999999999999996 -23.000000000000007 40
endloop
endfacet
facet normal 0 0 1
outer loop
vertex -0.9999999999999976 -23 40
vertex 2.9999999999999996 -23.000000000000007 40
vertex 2.9999999999999996 -21 40
endloop
endfacet
facet normal 0 0 1
outer loop
vertex -0.9999999999999418 -21.000000000000025 40
vertex 1.0000000000000033 -22 40
vertex 2.9999999999999996 -21 40
endloop
endfacet
facet normal 0 0 1
outer loop
vertex -0.9999999999999418 -21.000000000000025 40
vertex 2.9999999999999996 -21 40
vertex 2.9999999999999996 -19 40
endloop
endfacet
facet normal 0 0 1
outer loop
vertex 0.33333333333339366 -19.666666666666696 40
vertex 1.0000000000000042 -20 40
vertex 2.9999999999999996 -19 40
endloop
endfacet
facet normal 0 0 1
outer loop
vertex 0.33333333333339366 -19.666666666666696 40
vertex 2.9999999999999996 -19 40
vertex 2.9999999999999996 -17.0000000000001 40
endloop
endfacet
facet normal 0 0 1
outer loop
vertex 1.0000000000000027 -26 40
vertex -0.9999999999999956 -27 40
vertex 2.999999999999999 -28.999999999999996 40
endloop
endfacet
facet normal 0 0 1
outer loop
vertex 1.0000000000000027 -26 40
vertex 2.999999999999999 -28.999999999999996 40
vertex 2.999999999999999 -27 40
endloop
endfacet
facet normal 0 0 1
outer loop
vertex 1.000000000000008 -28 40
vertex -0.9999999999999925 -29 40
vertex 2.999999999999999 -30.999999999999996 40
endloop
endfacet
facet normal 0 0 1
outer loop
vertex 1.000000000000008 -28 40
vertex 2.999999999999999 -30.999999999999996 40
vertex 2.999999999999999 -28.999999999999996 40
endloop
endfacet
facet normal 0 0 1
outer loop
vertex 0.9999999999999964 -30 40
vertex -1.0000000000000033 -31 40
vertex 0.9999999999999971 -32 40
endloop
endfacet
facet normal 0 0 1
outer loop
vertex 0.9999999999999964 -30 40
vertex 0.9999999999999971 -32 40
vertex 2.999999999999995 -31 40
endloop
endfacet
facet normal 0 0 1
outer loop
vertex -24.000000000000004 -20 40
vertex -26 -19 40
vertex -28 -20.000000000000004 40
endloop
endfacet
facet normal 0 0 1
outer loop
vertex -24.000000000000004 -20 40
vertex -28 -20.000000000000004 40
vertex -28 -22 40
endloop
endfacet
facet normal 0 0 1
outer loop
vertex -23.999999999999996 -21.999999999999996 40
vertex -26 -21 40
vertex -28 -22 40
endloop
endfacet
facet normal 0 0 1
outer loop
vertex -23.999999999999996 -21.999999999999996 40
vertex -28 -22 40
vertex -28 -24 40
endloop
endfacet
facet normal 0 0 1
outer loop
vertex -24 -24 40
vertex -26 -23 40
vertex -28 -24 40
endloop
endfacet
facet normal 0 0 1
outer loop
vertex -24 -24 40
vertex -28 -24 40
vertex -28 -26.000000000000004 40
endloop
endfacet
facet normal 0 0 1
outer loop
vertex -26 -17.000000000000004 40
vertex -24 -16 40
vertex -28 -14.000000000000002 40
endloop
endfacet
facet normal 0 0 1
outer loop
vertex -26 -17.000000000000004 40
vertex -28 -14.000000000000002 40
vertex -28 -16.000000000000004 40
endloop
endfacet
facet normal 0 0 1
outer loop
vertex -26.000000000000004 -15 40
vertex -24 -14 40
vertex -28 -12 40
endloop
endfacet
facet normal 0 0 1
outer loop
vertex -26.000000000000004 -15 40
vertex -28 -12 40
vertex -28 -14.000000000000002 40
endloop
endfacet
facet normal 0 0 1
outer loop
vertex -26 -13 40
vertex -24 -12 40
vertex -28 -10.000000000000002 40
endloop
endfacet
facet normal 0 0 1
outer loop
vertex -26 -13 40
vertex -28 -10.000000000000002 40
vertex -28 -12 40
endloop
endfacet
facet normal 0 0 1
outer loop
vertex -0.9999999999999976 -17 40
vertex 1.0000000000000033 -18 40
vertex 2.9999999999999996 -17.000000000000004 40
endloop
endfacet
facet normal 0 0 1
outer loop
vertex -0.9999999999999976 -17 40
vertex 2.9999999999999996 -17.000000000000004 40
vertex 2.9999999999999996 -15.000000000000002 40
endloop
endfacet
facet normal 0 0 1
outer loop
vertex -0.9999999999999964 -14.999999999999998 40
vertex 1.0000000000000036 -16 40
vertex 2.9999999999999996 -15.000000000000002 40
endloop
endfacet
facet normal 0 0 1
outer loop
vertex -0.9999999999999964 -14.999999999999998 40
vertex 2.9999999999999996 -15.000000000000002 40
vertex 2.9999999999999996 -13.000000000000002 40
endloop
endfacet
facet normal 0 0 1
outer loop
vertex -0.9999999999999956 -13 40
vertex 1.0000000000000036 -14 40
vertex 2.9999999999999996 -13.000000000000002 40
endloop
endfacet
facet normal 0 0 1
outer loop
vertex -0.9999999999999956 -13 40
vertex 2.9999999999999996 -13.000000000000002 40
vertex 2.9999999999999996 -11.000000000000002 40
endloop
endfacet
facet normal 0 0 1
outer loop
vertex 1.0000000000000038 -12 40
vertex 2.9999999999999996 -11.000000000000002 40
vertex 2.9999999999999996 -10.500000000000002 40
endloop
endfacet
facet normal 0 0 1
outer loop
vertex 1.0000000000000038 -12 40
vertex 2.9999999999999996 -10.500000000000002 40
vertex 0.5000000000000027 -11.75 40
endloop
endfacet
facet normal 0 0 1
outer loop
vertex -26 -31 40
vertex -23.999999999999993 -30 40
vertex -28 -28 40
endloop
endfacet
facet normal 0 0 1
outer loop
vertex -26 -31 40
vertex -28 -28 40
vertex -28 -30 40
endloop
endfacet
facet normal 0 0 1
outer loop
vertex -25.999999999999996 -29 40
vertex -24 -28.000000000000004 40
vertex -28 -26.000000000000004 40
endloop
endfacet
facet normal 0 0 1
outer loop
vertex -25.999999999999996 -29 40
vertex -28 -26.000000000000004 40
vertex -28 -28 40
endloop
endfacet
facet normal 0 0 1
outer loop
vertex -26 -27.000000000000004 40
vertex -24 -26.000000000000004 40
vertex -26 -25.000000000000004 40
endloop
endfacet
facet normal 0 0 1
outer loop
vertex -26 -27.000000000000004 40
vertex -26 -25.000000000000004 40
vertex -28 -26.000000000000004 40
endloop
endfacet
facet normal 0 0 1
outer loop
vertex -24 -2.0000000000000013 40
vertex -28 1.7763568394002505e-15 40
vertex -28 -4.000000000000002 40
endloop
endfacet
facet normal 0 0 1
outer loop
vertex -27.999999999999996 0 40
vertex -15.999999999999996 0 40
vertex -9.999999999999996 3 40
endloop
endfacet
facet normal 0 0 1
outer loop
vertex -27.999999999999996 0 40
vertex -9.999999999999996 3 40
vertex -28 3 40
endloop
endfacet
facet normal 0 0 1
outer loop
vertex -11.999999999999998 0 40
vertex -5.999999999999997 3 40
vertex -9.999999999999996 3 40
endloop
endfacet
facet normal 0 0 1
outer loop
vertex -11.999999999999998 0 40
vertex -9.999999999999996 3 40
vertex -15.999999999999998 0 40
endloop
endfacet
facet normal 0 0 1
outer loop
vertex -0.9999999999999964 -8.999999999999998 40
vertex 2.500000000000003 -10.75 40
vertex 2.9999999999999996 -10.500000000000002 40
endloop
endfacet
facet normal 0 0 1
outer loop
vertex -0.9999999999999964 -8.999999999999998 40
vertex 2.9999999999999996 -10.500000000000002 40
vertex 2.9999999999999996 -7.000000000000002 40
endloop
endfacet
facet normal 0 0 1
outer loop
vertex -1.0000000000000013 -3.000000000000001 40
vertex 2.9999999999999996 -4.999999999999999 40
vertex 2.9999999999999996 -1.0000000000000009 40
endloop
endfacet
facet normal 0 0 1
outer loop
vertex -24 -4.000000000000002 40
vertex -25.999999999999996 -3 40
vertex -28 -4.000000000000002 40
endloop
endfacet
facet normal 0 0 1
outer loop
vertex -24 -4.000000000000002 40
vertex -28 -4.000000000000002 40
vertex -28 -6 40
endloop
endfacet
facet normal 0 0 1
outer loop
vertex -23.999999999999996 0 40
vertex -27.999999999999996 0 40
vertex -26 -1 40
endloop
endfacet
facet normal 0 0 1
outer loop
vertex -24 -6 40
vertex -26 -4.999999999999999 40
vertex -28 -6 40
endloop
endfacet
facet normal 0 0 1
outer loop
vertex -24 -6 40
vertex -28 -6 40
vertex -28 -8 40
endloop
endfacet
facet normal 0 0 1
outer loop
vertex -24.000000000000004 -8.000000000000002 40
vertex -26.000000000000004 -7.000000000000001 40
vertex -28 -8 40
endloop
endfacet
facet normal 0 0 1
outer loop
vertex -24.000000000000004 -8.000000000000002 40
vertex -28 -8 40
vertex -28 -10 40
endloop
endfacet
facet normal 0 0 1
outer loop
vertex -3.9999999999999973 0 40
vertex 2.0000000000000036 3 40
vertex -5.999999999999997 3 40
endloop
endfacet
facet normal 0 0 1
outer loop
vertex -3.9999999999999973 0 40
vertex -5.999999999999997 3 40
vertex -11.999999999999996 0 40
endloop
endfacet
facet normal 0 0 1
outer loop
vertex -0.9999999999999984 -7 40
vertex 1.000000000000003 -7.999999999999999 40
vertex 2.9999999999999996 -7.000000000000002 40
endloop
endfacet
facet normal 0 0 1
outer loop
vertex -0.9999999999999984 -7 40
vertex 2.9999999999999996 -7.000000000000002 40
vertex 2.9999999999999996 -5.000000000000002 40
endloop
endfacet
facet normal 0 0 1
outer loop
vertex 1.000000000000004 -10 40
vertex -0.9999999999999951 -11 40
vertex 0.5000000000000033 -11.75 40
endloop
endfacet
facet normal 0 0 1
outer loop
vertex 1.000000000000004 -10 40
vertex 0.5000000000000033 -11.75 40
vertex 2.500000000000003 -10.75 40
endloop
endfacet
facet normal 0 0 1
outer loop
vertex 1.0000000000000018 -4.000000000000001 40
vertex -0.9999999999999976 -5 40
vertex 1.0000000000000004 -5.999999999999998 40
endloop
endfacet
facet normal 0 0 1
outer loop
vertex 1.0000000000000018 -4.000000000000001 40
vertex 1.0000000000000004 -5.999999999999998 40
vertex 2.9999999999999996 -4.999999999999999 40
endloop
endfacet
facet normal 0 0 1
outer loop
vertex -26 -11 40
vertex -24.000000000000007 -10.000000000000004 40
vertex -26 -9 40
endloop
endfacet
facet normal 0 0 1
outer loop
vertex -26 -11 40
vertex -26 -9 40
vertex -28 -10.000000000000002 40
endloop
endfacet
facet normal 0 0 1
outer loop
vertex -3.4999999999999982 0.25000000000000044 40
vertex -2.9999999999999973 0 40
vertex 2.9999999999999996 0 40
endloop
endfacet
facet normal 0 0 1
outer loop
vertex -3.4999999999999982 0.25000000000000044 40
vertex 2.9999999999999996 0 40
vertex 3 3 40
endloop
endfacet
facet normal 0 0 1
outer loop
vertex -3.4999999999999982 0.25000000000000044 40
vertex 3 3 40
vertex 2.0000000000000036 3 40
endloop
endfacet
facet normal 0 0 1
outer loop
vertex -2.9999999999999973 0 40
vertex -3.4999999999999982 0.25000000000000044 40
vertex -3.999999999999999 0 40
endloop
endfacet
facet normal 0 0 1
outer loop
vertex 4.440892098500626e-16 0 40
vertex -0.9999999999999971 -1.0000000000000002 40
vertex 1.0000000000000016 -1.9999999999999996 40
endloop
endfacet
facet normal 0 0 1
outer loop
vertex 4.440892098500626e-16 0 40
vertex 1.0000000000000016 -1.9999999999999996 40
vertex 2.9999999999999996 -1.0000000000000009 40
endloop
endfacet
facet normal 0 0 1
outer loop
vertex 4.440892098500626e-16 0 40
vertex 2.9999999999999996 -1.0000000000000009 40
vertex 2.9999999999999996 0 40
endloop
endfacet
facet normal 0 0 -1
outer loop
vertex -23.999999999999993 -38 0
vertex -28 -40 0
vertex -28 -36 0
endloop
endfacet
facet normal 0 0 -1
outer loop
vertex -23.999999999999996 -32 0
vertex -28 -34 0
vertex -28 -30 0
endloop
endfacet
facet normal 0 0 -1
outer loop
vertex 0.33333333333339077 -19.6666666666667 0
vertex -0.9999999999999116 -19.000000000000043 0
vertex 3 -17.0000000000001 0
endloop
endfacet
facet normal 0 0 -1
outer loop
vertex -1.0000000000000107 -38.99999999999999 0
vertex 3 -37 0
vertex 3 -41 0
endloop
endfacet
facet normal 0 0 -1
outer loop
vertex -1.0000000000000036 -45 0
vertex 3 -43 0
vertex 3 -45 0
endloop
endfacet
facet normal 0 0 -1
outer loop
vertex -0.9999999999999947 -25 0
vertex 3 -23.000000000000007 0
vertex 3 -26.999999999999996 0
endloop
endfacet
facet normal 0 0 -1
outer loop
vertex -25.999999999999996 -39 0
vertex -24 -40.00000000000001 0
vertex -28 -42.00000000000001 0
endloop
endfacet
facet normal 0 0 -1
outer loop
vertex -25.999999999999996 -39 0
vertex -28 -42.00000000000001 0
vertex -28 -40 0
endloop
endfacet
facet normal 0 0 -1
outer loop
vertex -25.999999999999993 -41 0
vertex -24.000000000000007 -42 0
vertex -28 -44 0
endloop
endfacet
facet normal 0 0 -1
outer loop
vertex -25.999999999999993 -41 0
vertex -28 -44 0
vertex -28 -42.00000000000001 0
endloop
endfacet
facet normal 0 0 -1
outer loop
vertex -26 -43 0
vertex -23.999999999999993 -44 0
vertex -25 -45 0
endloop
endfacet
facet normal 0 0 -1
outer loop
vertex -26 -43 0
vertex -25 -45 0
vertex -28 -45 0
endloop
endfacet
facet normal 0 0 -1
outer loop
vertex -26 -43 0
vertex -28 -45 0
vertex -28 -44 0
endloop
endfacet
facet normal 0 0 -1
outer loop
vertex -26 -33 0
vertex -23.999999999999993 -34 0
vertex -28 -36 0
endloop
endfacet
facet normal 0 0 -1
outer loop
vertex -26 -33 0
vertex -28 -36 0
vertex -28 -34 0
endloop
endfacet
facet normal 0 0 -1
outer loop
vertex -25.99999999999999 -35 0
vertex -23.999999999999993 -36 0
vertex -25.999999999999996 -37 0
endloop
endfacet
facet normal 0 0 -1
outer loop
vertex -25.99999999999999 -35 0
vertex -25.999999999999996 -37 0
vertex -27.999999999999996 -36 0
endloop
endfacet
facet normal 0 0 -1
outer loop
vertex -24.000000000000007 -18 0
vertex -28 -20 0
vertex -28 -16.000000000000004 0
endloop
endfacet
facet normal 0 0 -1
outer loop
vertex 0.9999999999999893 -38 0
vertex -1.0000000000000009 -36.99999999999999 0
vertex 3 -34.99999999999999 0
endloop
endfacet
facet normal 0 0 -1
outer loop
vertex 0.9999999999999893 -38 0
vertex 3 -34.99999999999999 0
vertex 3 -37 0
endloop
endfacet
facet normal 0 0 -1
outer loop
vertex 0.9999999999999822 -36 0
vertex -1.0000000000000027 -35 0
vertex 3 -33 0
endloop
endfacet
facet normal 0 0 -1
outer loop
vertex 0.9999999999999822 -36 0
vertex 3 -33 0
vertex 3 -34.99999999999999 0
endloop
endfacet
facet normal 0 0 -1
outer loop
vertex 0.9999999999999973 -34 0
vertex -1.0000000000000027 -33 0
vertex 3 -31 0
endloop
endfacet
facet normal 0 0 -1
outer loop
vertex 0.9999999999999973 -34 0
vertex 3 -31 0
vertex 3 -33 0
endloop
endfacet
facet normal 0 0 -1
outer loop
vertex 1.000000000000007 -43.99999999999999 0
vertex -0.9999999999999978 -43 0
vertex 3 -41 0
endloop
endfacet
facet normal 0 0 -1
outer loop
vertex 1.000000000000007 -43.99999999999999 0
vertex 3 -41 0
vertex 3 -43 0
endloop
endfacet
facet normal 0 0 -1
outer loop
vertex 1.0000000000000089 -41.99999999999999 0
vertex -0.9999999999999858 -41 0
vertex 0.9999999999999987 -40 0
endloop
endfacet
facet normal 0 0 -1
outer loop
vertex 1.0000000000000089 -41.99999999999999 0
vertex 0.9999999999999987 -40 0
vertex 3 -41 0
endloop
endfacet
facet normal 0 0 -1
outer loop
vertex 1.0000000000000093 -24 0
vertex -0.9999999999999947 -23 0
vertex 3 -21.000000000000004 0
endloop
endfacet
facet normal 0 0 -1
outer loop
vertex 1.0000000000000093 -24 0
vertex 3 -21.000000000000004 0
vertex 3 -23.000000000000007 0
endloop
endfacet
facet normal 0 0 -1
outer loop
vertex 1.0000000000000062 -22 0
vertex -0.9999999999998255 -20.99999999999991 0
vertex 3 -19 0
endloop
endfacet
facet normal 0 0 -1
outer loop
vertex 1.0000000000000062 -22 0
vertex 3 -19 0
vertex 3 -21.000000000000004 0
endloop
endfacet
facet normal 0 0 -1
outer loop
vertex 0.9999999999999984 -20 0
vertex 0.33333333333339477 -19.666666666666696 0
vertex 3 -17.0000000000001 0
endloop
endfacet
facet normal 0 0 -1
outer loop
vertex 0.9999999999999984 -20 0
vertex 3 -17.0000000000001 0
vertex 3 -19 0
endloop
endfacet
facet normal 0 0 -1
outer loop
vertex 3 -29 0
vertex -0.9999999999999969 -27 0
vertex 1.0000000000000067 -26 0
endloop
endfacet
facet normal 0 0 -1
outer loop
vertex 3 -29 0
vertex 1.0000000000000067 -26 0
vertex 3 -26.999999999999996 0
endloop
endfacet
facet normal 0 0 -1
outer loop
vertex 1.0000000000000029 -28 0
vertex 3 -29 0
vertex 3 -31 0
endloop
endfacet
facet normal 0 0 -1
outer loop
vertex 1.0000000000000029 -28 0
vertex 3 -31 0
vertex -0.9999999999999964 -29 0
endloop
endfacet
facet normal 0 0 -1
outer loop
vertex 1.0000000000000029 -30 0
vertex 3 -31 0
vertex 1.000000000000007 -31.999999999999996 0
endloop
endfacet
facet normal 0 0 -1
outer loop
vertex 1.0000000000000029 -30 0
vertex 1.000000000000007 -31.999999999999996 0
vertex -0.9999999999999911 -31 0
endloop
endfacet
facet normal 0 0 -1
outer loop
vertex -26.000000000000004 -19 0
vertex -24 -20 0
vertex -28 -22 0
endloop
endfacet
facet normal 0 0 -1
outer loop
vertex -26.000000000000004 -19 0
vertex -28 -22 0
vertex -28 -20 0
endloop
endfacet
facet normal 0 0 -1
outer loop
vertex -25.999999999999996 -21 0
vertex -23.999999999999996 -22 0
vertex -28 -24 0
endloop
endfacet
facet normal 0 0 -1
outer loop
vertex -25.999999999999996 -21 0
vertex -28 -24 0
vertex -28 -22 0
endloop
endfacet
facet normal 0 0 -1
outer loop
vertex -25.999999999999996 -23 0
vertex -23.999999999999996 -24 0
vertex -28 -26 0
endloop
endfacet
facet normal 0 0 -1
outer loop
vertex -25.999999999999996 -23 0
vertex -28 -26 0
vertex -28 -24 0
endloop
endfacet
facet normal 0 0 -1
outer loop
vertex -24 -16 0
vertex -26.000000000000004 -17 0
vertex -28 -16.000000000000004 0
endloop
endfacet
facet normal 0 0 -1
outer loop
vertex -24 -16 0
vertex -28 -16.000000000000004 0
vertex -28 -14 0
endloop
endfacet
facet normal 0 0 -1
outer loop
vertex -24 -14 0
vertex -26 -15 0
vertex -28 -14 0
endloop
endfacet
facet normal 0 0 -1
outer loop
vertex -24 -14 0
vertex -28 -14 0
vertex -28 -11.999999999999998 0
endloop
endfacet
facet normal 0 0 -1
outer loop
vertex -23.999999999999996 -11.999999999999998 0
vertex -26 -13 0
vertex -28 -11.999999999999998 0
endloop
endfacet
facet normal 0 0 -1
outer loop
vertex -23.999999999999996 -11.999999999999998 0
vertex -28 -11.999999999999998 0
vertex -28 -9.999999999999996 0
endloop
endfacet
facet normal 0 0 -1
outer loop
vertex 1.000000000000007 -17.999999999999996 0
vertex -0.9999999999999916 -17 0
vertex 3 -15 0
endloop
endfacet
facet normal 0 0 -1
outer loop
vertex 1.000000000000007 -17.999999999999996 0
vertex 3 -15 0
vertex 3 -17 0
endloop
endfacet
facet normal 0 0 -1
outer loop
vertex 1.0000000000000042 -16 0
vertex -1 -15 0
vertex 3 -12.999999999999998 0
endloop
endfacet
facet normal 0 0 -1
outer loop
vertex 1.0000000000000042 -16 0
vertex 3 -12.999999999999998 0
vertex 3 -15 0
endloop
endfacet
facet normal 0 0 -1
outer loop
vertex 0.9999999999999987 -14 0
vertex -0.9999999999999987 -13 0
vertex 3 -11.000000000000002 0
endloop
endfacet
facet normal 0 0 -1
outer loop
vertex 0.9999999999999987 -14 0
vertex 3 -11.000000000000002 0
vertex 3 -12.999999999999998 0
endloop
endfacet
facet normal 0 0 -1
outer loop
vertex 1.0000000000000018 -12 0
vertex 0.5 -11.75 0
vertex 3 -10.5 0
endloop
endfacet
facet normal 0 0 -1
outer loop
vertex 1.0000000000000018 -12 0
vertex 3 -10.5 0
vertex 3 -11.000000000000002 0
endloop
endfacet
facet normal 0 0 -1
outer loop
vertex -23.99999999999999 -30 0
vertex -25.999999999999993 -31 0
vertex -28 -30 0
endloop
endfacet
facet normal 0 0 -1
outer loop
vertex -23.99999999999999 -30 0
vertex -28 -30 0
vertex -28 -27.999999999999993 0
endloop
endfacet
facet normal 0 0 -1
outer loop
vertex -24 -28 0
vertex -25.999999999999993 -28.999999999999996 0
vertex -28 -27.999999999999993 0
endloop
endfacet
facet normal 0 0 -1
outer loop
vertex -24 -28 0
vertex -28 -27.999999999999993 0
vertex -28 -26 0
endloop
endfacet
facet normal 0 0 -1
outer loop
vertex -24.000000000000007 -26 0
vertex -26 -27 0
vertex -28 -26 0
endloop
endfacet
facet normal 0 0 -1
outer loop
vertex -24.000000000000007 -26 0
vertex -28 -26 0
vertex -26.000000000000004 -25 0
endloop
endfacet
facet normal 0 0 -1
outer loop
vertex -24.000000000000004 -2 0
vertex -28 -4 0
vertex -28 -8.881784197001252e-16 0
endloop
endfacet
facet normal 0 0 -1
outer loop
vertex -16.000000000000004 0 0
vertex -28 0 0
vertex -28 3 0
endloop
endfacet
facet normal 0 0 -1
outer loop
vertex -16.000000000000004 0 0
vertex -28 3 0
vertex -10.000000000000004 3 0
endloop
endfacet
facet normal 0 0 -1
outer loop
vertex -12 0 0
vertex -16.000000000000004 -4.440892098500626e-16 0
vertex -10.000000000000004 3 0
endloop
endfacet
facet normal 0 0 -1
outer loop
vertex -12 0 0
vertex -10.000000000000004 3 0
vertex -5.999999999999999 3 0
endloop
endfacet
facet normal 0 0 -1
outer loop
vertex 2.4999999999999964 -10.750000000000002 0
vertex -1.0000000000000007 -9.000000000000002 0
vertex 3 -7.0000000000000036 0
endloop
endfacet
facet normal 0 0 -1
outer loop
vertex 2.4999999999999964 -10.750000000000002 0
vertex 3 -7.0000000000000036 0
vertex 3 -10.5 0
endloop
endfacet
facet normal 0 0 -1
outer loop
vertex -0.9999999999999991 -2.9999999999999996 0
vertex 3 -1.0000000000000004 0
vertex 3 -4.999999999999999 0
endloop
endfacet
facet normal 0 0 -1
outer loop
vertex -26 -2.999999999999999 0
vertex -24.000000000000004 -3.9999999999999996 0
vertex -28 -5.999999999999998 0
endloop
endfacet
facet normal 0 0 -1
outer loop
vertex -26 -2.999999999999999 0
vertex -28 -5.999999999999998 0
vertex -28 -4 0
endloop
endfacet
facet normal 0 0 -1
outer loop
vertex -24 0 0
vertex -26 -1.0000000000000002 0
vertex -28 0 0
endloop
endfacet
facet normal 0 0 -1
outer loop
vertex -24 -6 0
vertex -28 -8 0
vertex -28 -5.999999999999998 0
endloop
endfacet
facet normal 0 0 -1
outer loop
vertex -24 -6 0
vertex -28 -5.999999999999998 0
vertex -26 -4.999999999999998 0
endloop
endfacet
facet normal 0 0 -1
outer loop
vertex -24 -8 0
vertex -28 -9.999999999999996 0
vertex -28 -8 0
endloop
endfacet
facet normal 0 0 -1
outer loop
vertex -24 -8 0
vertex -28 -8 0
vertex -26 -7 0
endloop
endfacet
facet normal 0 0 -1
outer loop
vertex -4 0 0
vertex -12 0 0
vertex -5.999999999999999 3 0
endloop
endfacet
facet normal 0 0 -1
outer loop
vertex -4 0 0
vertex -5.999999999999999 3 0
vertex 2.000000000000001 3 0
endloop
endfacet
facet normal 0 0 -1
outer loop
vertex 1.0000000000000042 -8 0
vertex -0.9999999999999956 -7.000000000000001 0
vertex 3 -5.0000000000000036 0
endloop
endfacet
facet normal 0 0 -1
outer loop
vertex 1.0000000000000042 -8 0
vertex 3 -5.0000000000000036 0
vertex 3 -7.0000000000000036 0
endloop
endfacet
facet normal 0 0 -1
outer loop
vertex 0.999999999999998 -10.000000000000002 0
vertex 2.4999999999999964 -10.750000000000002 0
vertex 0.4999999999999982 -11.75 0
endloop
endfacet
facet normal 0 0 -1
outer loop
vertex 0.999999999999998 -10.000000000000002 0
vertex 0.4999999999999982 -11.75 0
vertex -1.0000000000000004 -11 0
endloop
endfacet
facet normal 0 0 -1
outer loop
vertex 1.0000000000000036 -6.000000000000002 0
vertex -0.9999999999999973 -5.000000000000001 0
vertex 0.9999999999999996 -4.000000000000002 0
endloop
endfacet
facet normal 0 0 -1
outer loop
vertex 1.0000000000000036 -6.000000000000002 0
vertex 0.9999999999999996 -4.000000000000002 0
vertex 3 -5.0000000000000036 0
endloop
endfacet
facet normal 0 0 -1
outer loop
vertex -25.999999999999996 -8.999999999999998 0
vertex -24 -10 0
vertex -25.999999999999996 -10.999999999999998 0
endloop
endfacet
facet normal 0 0 -1
outer loop
vertex -25.999999999999996 -8.999999999999998 0
vertex -25.999999999999996 -10.999999999999998 0
vertex -27.999999999999996 -9.999999999999998 0
endloop
endfacet
facet normal 0 0 -1
outer loop
vertex -2.999999999999996 0 0
vertex -3.4999999999999973 0.2500000000000009 0
vertex 2.000000000000001 3 0
endloop
endfacet
facet normal 0 0 -1
outer loop
vertex -2.999999999999996 0 0
vertex 2.000000000000001 3 0
vertex 3 3 0
endloop
endfacet
facet normal 0 0 -1
outer loop
vertex -2.999999999999996 0 0
vertex 3 3 0
vertex 3 0 0
endloop
endfacet
facet normal 0 0 -1
outer loop
vertex -2.9999999999999956 0 0
vertex -3.999999999999999 0 0
vertex -3.4999999999999973 0.2500000000000009 0
endloop
endfacet
facet normal 0 0 -1
outer loop
vertex 1.0000000000000013 -1.9999999999999996 0
vertex -0.9999999999999973 -0.9999999999999998 0
vertex 0 0 0
endloop
endfacet
facet normal 0 0 -1
outer loop
vertex 1.0000000000000013 -1.9999999999999996 0
vertex 0 0 0
vertex 3 0 0
endloop
endfacet
facet normal 0 0 -1
outer loop
vertex 1.0000000000000013 -1.9999999999999996 0
vertex 3 0 0
vertex 3 -1.0000000000000004 0
endloop
endfacet
endsolid JSCAD
